<svg xmlns="http://www.w3.org/2000/svg" viewBox="0 0 389.14 53.59"><defs><style>.cls-1{fill:#56ca19;}.cls-2{fill:#fff;}</style></defs><title>LinerlessElement 1logo_icon_dark</title><g id="Ebene_2" data-name="Ebene 2"><g id="Layer_1" data-name="Layer 1"><path class="cls-1" d="M60,7.86l-1,.94,6.2,5.78,1-.93A20.48,20.48,0,0,1,80.31,8.2c5.31,0,10,2.25,14.07,5.46,2.54,2,8.63,8.21,8.63,13.19S98.14,36.51,94.38,40a20.91,20.91,0,0,1-28.15,0L45,20.14l-6.19,5.79,21.2,19.91c11.17,10.46,29.84,10.26,41-.2,5.4-5.08,11.12-11.75,11.12-19.16,0-7.13-6-14.31-11.32-18.91A31.25,31.25,0,0,0,80.31,0,29.49,29.49,0,0,0,60,7.86Z"/><path class="cls-1" d="M52.14,45.73l1-.94L46.93,39l-1,.93a20.42,20.42,0,0,1-14.06,5.46c-5.32,0-10-2.25-14.07-5.46-2.54-2-8.63-8.21-8.63-13.19S14,17.07,17.8,13.55a20.89,20.89,0,0,1,28.15,0l21.19,19.9,6.19-5.79L52.14,7.75C41-2.72,22.29-2.52,11.12,8,5.71,13,0,19.7,0,27.11,0,34.23,6.05,41.42,11.32,46a31.21,31.21,0,0,0,20.56,7.58A29.51,29.51,0,0,0,52.14,45.73Z"/><path class="cls-2" d="M165.13,42.56v7H137.21V5.16h27.27v7H145v12h17v7.16H145V42.56Z"/><path class="cls-2" d="M168.88,34.5c0-9.54,7.67-15.67,16.38-15.67a15.17,15.17,0,0,1,12.24,5.8l-5.35,4.2a8.89,8.89,0,0,0-6.77-3c-5.22,0-9,3.61-9,8.7s3.74,8.7,9,8.7a8.89,8.89,0,0,0,6.77-3l5.35,4.2a15.35,15.35,0,0,1-12.24,5.8C176.55,50.17,168.88,44,168.88,34.5Z"/><path class="cls-2" d="M237.51,34.5c0-9.54,7.67-15.67,16.38-15.67a15.17,15.17,0,0,1,12.24,5.8l-5.35,4.2a8.89,8.89,0,0,0-6.77-3c-5.22,0-9,3.61-9,8.7s3.74,8.7,9,8.7a8.89,8.89,0,0,0,6.77-3l5.35,4.2a15.35,15.35,0,0,1-12.24,5.8C245.18,50.17,237.51,44,237.51,34.5Z"/><path class="cls-2" d="M200.16,34.43c0-9.54,7.41-15.6,16-15.6s16,6.06,16,15.6-7.48,15.8-16,15.8S200.16,44,200.16,34.43Zm24.5,0a8.48,8.48,0,1,0-17,0c0,5.29,3.8,8.84,8.45,8.84A8.47,8.47,0,0,0,224.66,34.43Z"/><path class="cls-2" d="M299.81,32.69v16.9h-7.48V33.4c0-4.77-2.9-7.22-6.25-7.22s-7.67,1.87-7.67,7.67V49.59h-7.48V3.36h7.48V24.05c1.48-3.61,6.31-5.22,9.34-5.22C295.49,18.83,299.81,23.93,299.81,32.69Z"/><path class="cls-2" d="M337.54,19.48V49.59h-7.48V45.53c-2.06,3.22-6.32,4.7-10,4.7-7.93,0-14.83-6.12-14.83-15.73S312.07,18.83,320,18.83c3.81,0,8,1.48,10.06,4.65v-4Zm-7.61,15a8.64,8.64,0,0,0-8.7-8.63,8.4,8.4,0,0,0-8.45,8.63,8.58,8.58,0,1,0,17.15,0Z"/><path class="cls-2" d="M344,8.84a4.71,4.71,0,0,1,4.9-4.58,4.61,4.61,0,0,1,4.83,4.58,4.65,4.65,0,0,1-4.83,4.58A4.75,4.75,0,0,1,344,8.84Zm1.16,10.64h7.48V49.59h-7.48Z"/><path class="cls-2" d="M389.14,32.69v16.9h-7.48V33.4c0-4.77-2.91-7.22-6.26-7.22s-7.67,1.87-7.67,7.67V49.59h-7.48V19.48h7.48v4.77c1.55-3.74,6.25-5.42,9.35-5.42C384.82,18.83,389.14,23.93,389.14,32.69Z"/></g></g></svg>